<svg width="679" height="242" viewBox="0 0 679 242" fill="none" xmlns="http://www.w3.org/2000/svg">
<path d="M40.32 58.44H21.44L18.64 67H0L20.72 10.36H41.2L61.84 67H43.12L40.32 58.44ZM36 45.08L30.88 29.32L25.76 45.08H36ZM88.755 50.12L95.955 21.88H114.835L99.795 67H77.635L62.595 21.88H81.475L88.755 50.12ZM117.147 44.44C117.147 39.6933 117.947 35.5867 119.547 32.12C121.2 28.6 123.44 25.9333 126.267 24.12C129.094 22.2533 132.267 21.32 135.787 21.32C138.72 21.32 141.254 21.9333 143.387 23.16C145.52 24.3333 147.147 25.96 148.267 28.04V21.88H165.947V67H148.267V60.84C147.147 62.92 145.52 64.5733 143.387 65.8C141.254 66.9733 138.72 67.56 135.787 67.56C132.267 67.56 129.094 66.6533 126.267 64.84C123.44 62.9733 121.2 60.3067 119.547 56.84C117.947 53.32 117.147 49.1867 117.147 44.44ZM148.267 44.44C148.267 42.04 147.654 40.1733 146.427 38.84C145.2 37.5067 143.627 36.84 141.707 36.84C139.787 36.84 138.214 37.5067 136.987 38.84C135.76 40.1733 135.147 42.04 135.147 44.44C135.147 46.84 135.76 48.7067 136.987 50.04C138.214 51.3733 139.787 52.04 141.707 52.04C143.627 52.04 145.2 51.3733 146.427 50.04C147.654 48.7067 148.267 46.84 148.267 44.44ZM191.682 7.8V67H173.922V7.8H191.682ZM208.663 18.28C205.57 18.28 203.09 17.4533 201.223 15.8C199.356 14.1467 198.423 12.0667 198.423 9.56C198.423 7 199.356 4.89333 201.223 3.24C203.09 1.53333 205.57 0.679996 208.663 0.679996C211.703 0.679996 214.156 1.53333 216.023 3.24C217.89 4.89333 218.823 7 218.823 9.56C218.823 12.0667 217.89 14.1467 216.023 15.8C214.156 17.4533 211.703 18.28 208.663 18.28ZM217.463 21.88V67H199.703V21.88H217.463ZM269.164 44.04C269.164 45.2667 269.084 46.44 268.924 47.56H240.364C240.631 51.4533 242.258 53.4 245.244 53.4C247.164 53.4 248.551 52.52 249.404 50.76H268.204C267.564 53.96 266.204 56.84 264.124 59.4C262.098 61.9067 259.511 63.9067 256.364 65.4C253.271 66.84 249.858 67.56 246.124 67.56C241.644 67.56 237.644 66.6267 234.124 64.76C230.658 62.8933 227.938 60.2267 225.964 56.76C224.044 53.24 223.084 49.1333 223.084 44.44C223.084 39.7467 224.044 35.6667 225.964 32.2C227.938 28.68 230.658 25.9867 234.124 24.12C237.644 22.2533 241.644 21.32 246.124 21.32C250.604 21.32 254.578 22.2533 258.044 24.12C261.564 25.9333 264.284 28.5467 266.204 31.96C268.178 35.3733 269.164 39.4 269.164 44.04ZM251.164 39.8C251.164 38.3067 250.684 37.1867 249.724 36.44C248.764 35.64 247.564 35.24 246.124 35.24C242.978 35.24 241.138 36.76 240.604 39.8H251.164ZM332.055 44.04C332.055 45.2667 331.975 46.44 331.815 47.56H303.255C303.522 51.4533 305.148 53.4 308.135 53.4C310.055 53.4 311.442 52.52 312.295 50.76H331.095C330.455 53.96 329.095 56.84 327.015 59.4C324.988 61.9067 322.402 63.9067 319.255 65.4C316.162 66.84 312.748 67.56 309.015 67.56C304.535 67.56 300.535 66.6267 297.015 64.76C293.548 62.8933 290.828 60.2267 288.855 56.76C286.935 53.24 285.975 49.1333 285.975 44.44C285.975 39.7467 286.935 35.6667 288.855 32.2C290.828 28.68 293.548 25.9867 297.015 24.12C300.535 22.2533 304.535 21.32 309.015 21.32C313.495 21.32 317.468 22.2533 320.935 24.12C324.455 25.9333 327.175 28.5467 329.095 31.96C331.068 35.3733 332.055 39.4 332.055 44.04ZM314.055 39.8C314.055 38.3067 313.575 37.1867 312.615 36.44C311.655 35.64 310.455 35.24 309.015 35.24C305.868 35.24 304.028 36.76 303.495 39.8H314.055ZM348.866 44.44C348.866 39.6933 349.666 35.5867 351.266 32.12C352.919 28.6 355.159 25.9333 357.986 24.12C360.812 22.2533 363.986 21.32 367.506 21.32C370.439 21.32 372.972 21.9333 375.106 23.16C377.239 24.3333 378.866 25.96 379.986 28.04V21.88H397.666V67H379.986V60.84C378.866 62.92 377.239 64.5733 375.106 65.8C372.972 66.9733 370.439 67.56 367.506 67.56C363.986 67.56 360.812 66.6533 357.986 64.84C355.159 62.9733 352.919 60.3067 351.266 56.84C349.666 53.32 348.866 49.1867 348.866 44.44ZM379.986 44.44C379.986 42.04 379.372 40.1733 378.146 38.84C376.919 37.5067 375.346 36.84 373.426 36.84C371.506 36.84 369.932 37.5067 368.706 38.84C367.479 40.1733 366.866 42.04 366.866 44.44C366.866 46.84 367.479 48.7067 368.706 50.04C369.932 51.3733 371.506 52.04 373.426 52.04C375.346 52.04 376.919 51.3733 378.146 50.04C379.372 48.7067 379.986 46.84 379.986 44.44ZM423.401 28.04C424.521 25.96 426.121 24.3333 428.201 23.16C430.334 21.9333 432.867 21.32 435.801 21.32C439.321 21.32 442.494 22.2533 445.321 24.12C448.147 25.9333 450.361 28.6 451.961 32.12C453.614 35.5867 454.441 39.6933 454.441 44.44C454.441 49.1867 453.614 53.32 451.961 56.84C450.361 60.3067 448.147 62.9733 445.321 64.84C442.494 66.6533 439.321 67.56 435.801 67.56C432.867 67.56 430.334 66.9733 428.201 65.8C426.121 64.5733 424.521 62.92 423.401 60.84V88.6H405.641V21.88H423.401V28.04ZM436.441 44.44C436.441 42.04 435.827 40.1733 434.601 38.84C433.374 37.5067 431.801 36.84 429.881 36.84C427.961 36.84 426.387 37.5067 425.161 38.84C423.934 40.1733 423.321 42.04 423.321 44.44C423.321 46.84 423.934 48.7067 425.161 50.04C426.387 51.3733 427.961 52.04 429.881 52.04C431.801 52.04 433.374 51.3733 434.601 50.04C435.827 48.7067 436.441 46.84 436.441 44.44ZM481.456 67.56C476.922 67.56 472.842 66.6267 469.216 64.76C465.589 62.8933 462.736 60.2267 460.656 56.76C458.629 53.24 457.616 49.1333 457.616 44.44C457.616 39.7467 458.629 35.6667 460.656 32.2C462.736 28.68 465.589 25.9867 469.216 24.12C472.842 22.2533 476.922 21.32 481.456 21.32C485.989 21.32 490.069 22.2533 493.696 24.12C497.322 25.9867 500.149 28.68 502.176 32.2C504.256 35.6667 505.296 39.7467 505.296 44.44C505.296 49.1333 504.256 53.24 502.176 56.76C500.149 60.2267 497.322 62.8933 493.696 64.76C490.069 66.6267 485.989 67.56 481.456 67.56ZM481.456 52.2C483.109 52.2 484.496 51.56 485.616 50.28C486.736 48.9467 487.296 47 487.296 44.44C487.296 41.88 486.736 39.96 485.616 38.68C484.496 37.3467 483.109 36.68 481.456 36.68C479.802 36.68 478.416 37.3467 477.296 38.68C476.176 39.96 475.616 41.88 475.616 44.44C475.616 47 476.149 48.9467 477.216 50.28C478.336 51.56 479.749 52.2 481.456 52.2ZM519.835 18.28C516.742 18.28 514.262 17.4533 512.395 15.8C510.528 14.1467 509.595 12.0667 509.595 9.56C509.595 7 510.528 4.89333 512.395 3.24C514.262 1.53333 516.742 0.679996 519.835 0.679996C522.875 0.679996 525.328 1.53333 527.195 3.24C529.062 4.89333 529.995 7 529.995 9.56C529.995 12.0667 529.062 14.1467 527.195 15.8C525.328 17.4533 522.875 18.28 519.835 18.28ZM528.635 21.88V67H510.875V21.88H528.635ZM580.336 44.04C580.336 45.2667 580.256 46.44 580.096 47.56H551.536C551.803 51.4533 553.43 53.4 556.416 53.4C558.336 53.4 559.723 52.52 560.576 50.76H579.376C578.736 53.96 577.376 56.84 575.296 59.4C573.27 61.9067 570.683 63.9067 567.536 65.4C564.443 66.84 561.03 67.56 557.296 67.56C552.816 67.56 548.816 66.6267 545.296 64.76C541.83 62.8933 539.11 60.2267 537.136 56.76C535.216 53.24 534.256 49.1333 534.256 44.44C534.256 39.7467 535.216 35.6667 537.136 32.2C539.11 28.68 541.83 25.9867 545.296 24.12C548.816 22.2533 552.816 21.32 557.296 21.32C561.776 21.32 565.75 22.2533 569.216 24.12C572.736 25.9333 575.456 28.5467 577.376 31.96C579.35 35.3733 580.336 39.4 580.336 44.04ZM562.336 39.8C562.336 38.3067 561.856 37.1867 560.896 36.44C559.936 35.64 558.736 35.24 557.296 35.24C554.15 35.24 552.31 36.76 551.776 39.8H562.336ZM597.147 44.44C597.147 39.6933 597.947 35.5867 599.547 32.12C601.2 28.6 603.44 25.9333 606.267 24.12C609.094 22.2533 612.267 21.32 615.787 21.32C618.72 21.32 621.254 21.9333 623.387 23.16C625.52 24.3333 627.147 25.96 628.267 28.04V21.88H645.947V67H628.267V60.84C627.147 62.92 625.52 64.5733 623.387 65.8C621.254 66.9733 618.72 67.56 615.787 67.56C612.267 67.56 609.094 66.6533 606.267 64.84C603.44 62.9733 601.2 60.3067 599.547 56.84C597.947 53.32 597.147 49.1867 597.147 44.44ZM628.267 44.44C628.267 42.04 627.654 40.1733 626.427 38.84C625.2 37.5067 623.627 36.84 621.707 36.84C619.787 36.84 618.214 37.5067 616.987 38.84C615.76 40.1733 615.147 42.04 615.147 44.44C615.147 46.84 615.76 48.7067 616.987 50.04C618.214 51.3733 619.787 52.04 621.707 52.04C623.627 52.04 625.2 51.3733 626.427 50.04C627.654 48.7067 628.267 46.84 628.267 44.44ZM12.96 105.28C9.86667 105.28 7.38667 104.453 5.52 102.8C3.65333 101.147 2.72 99.0667 2.72 96.56C2.72 94 3.65333 91.8933 5.52 90.24C7.38667 88.5333 9.86667 87.68 12.96 87.68C16 87.68 18.4533 88.5333 20.32 90.24C22.1867 91.8933 23.12 94 23.12 96.56C23.12 99.0667 22.1867 101.147 20.32 102.8C18.4533 104.453 16 105.28 12.96 105.28ZM21.76 108.88V154H4V108.88H21.76ZM61.3813 108.56C66.5546 108.56 70.5813 110.293 73.4613 113.76C76.3946 117.227 77.8613 121.92 77.8613 127.84V154H60.1813V130.08C60.1813 127.947 59.5946 126.267 58.4213 125.04C57.3013 123.76 55.7813 123.12 53.8613 123.12C51.8879 123.12 50.3413 123.76 49.2213 125.04C48.1013 126.267 47.5413 127.947 47.5413 130.08V154H29.7813V108.88H47.5413V115.76C48.9279 113.627 50.7679 111.893 53.0613 110.56C55.4079 109.227 58.1813 108.56 61.3813 108.56ZM83.1625 131.44C83.1625 126.747 84.1225 122.667 86.0425 119.2C88.0158 115.68 90.7358 112.987 94.2025 111.12C97.7225 109.253 101.723 108.32 106.203 108.32C112.069 108.32 117.003 109.973 121.003 113.28C125.056 116.587 127.616 121.173 128.683 127.04H109.883C109.189 124.693 107.829 123.52 105.803 123.52C104.363 123.52 103.216 124.187 102.363 125.52C101.563 126.853 101.163 128.827 101.163 131.44C101.163 134.053 101.563 136.027 102.363 137.36C103.216 138.693 104.363 139.36 105.803 139.36C107.829 139.36 109.189 138.187 109.883 135.84H128.683C127.616 141.707 125.056 146.293 121.003 149.6C117.003 152.907 112.069 154.56 106.203 154.56C101.723 154.56 97.7225 153.627 94.2025 151.76C90.7358 149.893 88.0158 147.227 86.0425 143.76C84.1225 140.24 83.1625 136.133 83.1625 131.44ZM152.073 94.8V154H134.313V94.8H152.073ZM207.854 108.88V154H190.094V147.12C188.707 149.253 186.84 150.987 184.494 152.32C182.2 153.653 179.454 154.32 176.254 154.32C171.08 154.32 167.027 152.587 164.094 149.12C161.214 145.653 159.774 140.96 159.774 135.04V108.88H177.454V132.8C177.454 134.933 178.014 136.64 179.134 137.92C180.307 139.147 181.854 139.76 183.774 139.76C185.747 139.76 187.294 139.147 188.414 137.92C189.534 136.64 190.094 134.933 190.094 132.8V108.88H207.854ZM235.955 154.56C231.688 154.56 227.902 153.867 224.595 152.48C221.342 151.093 218.755 149.173 216.835 146.72C214.915 144.267 213.822 141.493 213.555 138.4H230.595C230.808 139.733 231.368 140.72 232.275 141.36C233.235 142 234.435 142.32 235.875 142.32C236.782 142.32 237.502 142.133 238.035 141.76C238.568 141.333 238.835 140.827 238.835 140.24C238.835 139.227 238.275 138.507 237.155 138.08C236.035 137.653 234.142 137.173 231.475 136.64C228.222 136 225.528 135.307 223.395 134.56C221.315 133.813 219.475 132.533 217.875 130.72C216.328 128.907 215.555 126.4 215.555 123.2C215.555 120.427 216.275 117.92 217.715 115.68C219.208 113.387 221.395 111.6 224.275 110.32C227.155 108.987 230.648 108.32 234.755 108.32C240.835 108.32 245.582 109.813 248.995 112.8C252.462 115.787 254.542 119.68 255.235 124.48H239.475C239.208 123.253 238.648 122.32 237.795 121.68C236.942 120.987 235.795 120.64 234.355 120.64C233.448 120.64 232.755 120.827 232.275 121.2C231.795 121.52 231.555 122.027 231.555 122.72C231.555 123.627 232.115 124.32 233.235 124.8C234.355 125.227 236.142 125.68 238.595 126.16C241.848 126.8 244.595 127.52 246.835 128.32C249.075 129.12 251.022 130.507 252.675 132.48C254.328 134.4 255.155 137.067 255.155 140.48C255.155 143.147 254.382 145.547 252.835 147.68C251.288 149.813 249.048 151.493 246.115 152.72C243.235 153.947 239.848 154.56 235.955 154.56ZM259.803 131.44C259.803 126.693 260.603 122.587 262.203 119.12C263.856 115.6 266.096 112.933 268.923 111.12C271.75 109.253 274.923 108.32 278.443 108.32C281.376 108.32 283.91 108.933 286.043 110.16C288.176 111.333 289.803 112.96 290.923 115.04V108.88H308.603V154H290.923V147.84C289.803 149.92 288.176 151.573 286.043 152.8C283.91 153.973 281.376 154.56 278.443 154.56C274.923 154.56 271.75 153.653 268.923 151.84C266.096 149.973 263.856 147.307 262.203 143.84C260.603 140.32 259.803 136.187 259.803 131.44ZM290.923 131.44C290.923 129.04 290.31 127.173 289.083 125.84C287.856 124.507 286.283 123.84 284.363 123.84C282.443 123.84 280.87 124.507 279.643 125.84C278.416 127.173 277.803 129.04 277.803 131.44C277.803 133.84 278.416 135.707 279.643 137.04C280.87 138.373 282.443 139.04 284.363 139.04C286.283 139.04 287.856 138.373 289.083 137.04C290.31 135.707 290.923 133.84 290.923 131.44ZM267.243 105.84C268.096 100.88 269.59 97.3067 271.723 95.12C273.91 92.88 276.71 91.76 280.123 91.76C281.403 91.76 282.603 91.9467 283.723 92.32C284.843 92.6933 286.043 93.2267 287.323 93.92C288.336 94.4533 289.136 94.8533 289.723 95.12C290.363 95.3333 291.003 95.44 291.643 95.44C293.616 95.44 294.79 94.1867 295.163 91.68H303.883C303.03 96.64 301.51 100.213 299.323 102.4C297.19 104.587 294.416 105.68 291.003 105.68C289.723 105.68 288.523 105.493 287.403 105.12C286.283 104.747 285.083 104.213 283.803 103.52C283.056 103.147 282.31 102.827 281.563 102.56C280.816 102.24 280.123 102.08 279.483 102.08C277.563 102.08 276.363 103.333 275.883 105.84H267.243ZM338.018 154.56C333.485 154.56 329.405 153.627 325.778 151.76C322.151 149.893 319.298 147.227 317.218 143.76C315.191 140.24 314.178 136.133 314.178 131.44C314.178 126.747 315.191 122.667 317.218 119.2C319.298 115.68 322.151 112.987 325.778 111.12C329.405 109.253 333.485 108.32 338.018 108.32C342.551 108.32 346.631 109.253 350.258 111.12C353.885 112.987 356.711 115.68 358.738 119.2C360.818 122.667 361.858 126.747 361.858 131.44C361.858 136.133 360.818 140.24 358.738 143.76C356.711 147.227 353.885 149.893 350.258 151.76C346.631 153.627 342.551 154.56 338.018 154.56ZM338.018 139.2C339.671 139.2 341.058 138.56 342.178 137.28C343.298 135.947 343.858 134 343.858 131.44C343.858 128.88 343.298 126.96 342.178 125.68C341.058 124.347 339.671 123.68 338.018 123.68C336.365 123.68 334.978 124.347 333.858 125.68C332.738 126.96 332.178 128.88 332.178 131.44C332.178 134 332.711 135.947 333.778 137.28C334.898 138.56 336.311 139.2 338.018 139.2ZM424.711 131.04C424.711 132.267 424.631 133.44 424.471 134.56H395.911C396.178 138.453 397.805 140.4 400.791 140.4C402.711 140.4 404.098 139.52 404.951 137.76H423.751C423.111 140.96 421.751 143.84 419.671 146.4C417.645 148.907 415.058 150.907 411.911 152.4C408.818 153.84 405.405 154.56 401.671 154.56C397.191 154.56 393.191 153.627 389.671 151.76C386.205 149.893 383.485 147.227 381.511 143.76C379.591 140.24 378.631 136.133 378.631 131.44C378.631 126.747 379.591 122.667 381.511 119.2C383.485 115.68 386.205 112.987 389.671 111.12C393.191 109.253 397.191 108.32 401.671 108.32C406.151 108.32 410.125 109.253 413.591 111.12C417.111 112.933 419.831 115.547 421.751 118.96C423.725 122.373 424.711 126.4 424.711 131.04ZM406.711 126.8C406.711 125.307 406.231 124.187 405.271 123.44C404.311 122.64 403.111 122.24 401.671 122.24C398.525 122.24 396.685 123.76 396.151 126.8H406.711ZM490.568 108.56C496.328 108.56 500.781 110.293 503.928 113.76C507.128 117.227 508.728 121.92 508.728 127.84V154H491.048V130.08C491.048 128.16 490.461 126.667 489.288 125.6C488.168 124.48 486.648 123.92 484.728 123.92C482.755 123.92 481.208 124.48 480.088 125.6C478.968 126.667 478.408 128.16 478.408 130.08V154H460.728V130.08C460.728 128.16 460.141 126.667 458.968 125.6C457.848 124.48 456.328 123.92 454.408 123.92C452.435 123.92 450.888 124.48 449.768 125.6C448.648 126.667 448.088 128.16 448.088 130.08V154H430.328V108.88H448.088V114.96C449.368 113.04 451.101 111.493 453.288 110.32C455.528 109.147 458.141 108.56 461.128 108.56C464.381 108.56 467.261 109.28 469.768 110.72C472.275 112.107 474.275 114.08 475.768 116.64C477.421 114.293 479.528 112.373 482.088 110.88C484.648 109.333 487.475 108.56 490.568 108.56ZM550.096 154.56C545.829 154.56 542.042 153.867 538.736 152.48C535.482 151.093 532.896 149.173 530.976 146.72C529.056 144.267 527.962 141.493 527.696 138.4H544.736C544.949 139.733 545.509 140.72 546.416 141.36C547.376 142 548.576 142.32 550.016 142.32C550.922 142.32 551.642 142.133 552.176 141.76C552.709 141.333 552.976 140.827 552.976 140.24C552.976 139.227 552.416 138.507 551.296 138.08C550.176 137.653 548.282 137.173 545.616 136.64C542.362 136 539.669 135.307 537.536 134.56C535.456 133.813 533.616 132.533 532.016 130.72C530.469 128.907 529.696 126.4 529.696 123.2C529.696 120.427 530.416 117.92 531.856 115.68C533.349 113.387 535.536 111.6 538.416 110.32C541.296 108.987 544.789 108.32 548.896 108.32C554.976 108.32 559.722 109.813 563.136 112.8C566.602 115.787 568.682 119.68 569.376 124.48H553.616C553.349 123.253 552.789 122.32 551.936 121.68C551.082 120.987 549.936 120.64 548.496 120.64C547.589 120.64 546.896 120.827 546.416 121.2C545.936 121.52 545.696 122.027 545.696 122.72C545.696 123.627 546.256 124.32 547.376 124.8C548.496 125.227 550.282 125.68 552.736 126.16C555.989 126.8 558.736 127.52 560.976 128.32C563.216 129.12 565.162 130.507 566.816 132.48C568.469 134.4 569.296 137.067 569.296 140.48C569.296 143.147 568.522 145.547 566.976 147.68C565.429 149.813 563.189 151.493 560.256 152.72C557.376 153.947 553.989 154.56 550.096 154.56ZM624.104 108.88V154H606.344V147.12C604.957 149.253 603.09 150.987 600.744 152.32C598.45 153.653 595.704 154.32 592.504 154.32C587.33 154.32 583.277 152.587 580.344 149.12C577.464 145.653 576.024 140.96 576.024 135.04V108.88H593.704V132.8C593.704 134.933 594.264 136.64 595.384 137.92C596.557 139.147 598.104 139.76 600.024 139.76C601.997 139.76 603.544 139.147 604.664 137.92C605.784 136.64 606.344 134.933 606.344 132.8V108.88H624.104ZM629.725 131.44C629.725 126.693 630.525 122.587 632.125 119.12C633.778 115.6 636.018 112.933 638.845 111.12C641.672 109.253 644.845 108.32 648.365 108.32C651.298 108.32 653.832 108.933 655.965 110.16C658.098 111.333 659.725 112.96 660.845 115.04V108.88H678.525V154H660.845V147.84C659.725 149.92 658.098 151.573 655.965 152.8C653.832 153.973 651.298 154.56 648.365 154.56C644.845 154.56 641.672 153.653 638.845 151.84C636.018 149.973 633.778 147.307 632.125 143.84C630.525 140.32 629.725 136.187 629.725 131.44ZM660.845 131.44C660.845 129.04 660.232 127.173 659.005 125.84C657.778 124.507 656.205 123.84 654.285 123.84C652.365 123.84 650.792 124.507 649.565 125.84C648.338 127.173 647.725 129.04 647.725 131.44C647.725 133.84 648.338 135.707 649.565 137.04C650.792 138.373 652.365 139.04 654.285 139.04C656.205 139.04 657.778 138.373 659.005 137.04C660.232 135.707 660.845 133.84 660.845 131.44ZM1.6 218.44C1.6 213.747 2.56 209.667 4.48 206.2C6.45333 202.68 9.17333 199.987 12.64 198.12C16.16 196.253 20.16 195.32 24.64 195.32C30.5067 195.32 35.44 196.973 39.44 200.28C43.4933 203.587 46.0533 208.173 47.12 214.04H28.32C27.6267 211.693 26.2667 210.52 24.24 210.52C22.8 210.52 21.6533 211.187 20.8 212.52C20 213.853 19.6 215.827 19.6 218.44C19.6 221.053 20 223.027 20.8 224.36C21.6533 225.693 22.8 226.36 24.24 226.36C26.2667 226.36 27.6267 225.187 28.32 222.84H47.12C46.0533 228.707 43.4933 233.293 39.44 236.6C35.44 239.907 30.5067 241.56 24.64 241.56C20.16 241.56 16.16 240.627 12.64 238.76C9.17333 236.893 6.45333 234.227 4.48 230.76C2.56 227.24 1.6 223.133 1.6 218.44ZM61.71 192.28C58.6167 192.28 56.1367 191.453 54.27 189.8C52.4033 188.147 51.47 186.067 51.47 183.56C51.47 181 52.4033 178.893 54.27 177.24C56.1367 175.533 58.6167 174.68 61.71 174.68C64.75 174.68 67.2033 175.533 69.07 177.24C70.9367 178.893 71.87 181 71.87 183.56C71.87 186.067 70.9367 188.147 69.07 189.8C67.2033 191.453 64.75 192.28 61.71 192.28ZM70.51 195.88V241H52.75V195.88H70.51ZM76.1313 218.44C76.1313 213.693 76.9313 209.587 78.5313 206.12C80.1846 202.6 82.4246 199.933 85.2513 198.12C88.0779 196.253 91.2513 195.32 94.7713 195.32C97.7046 195.32 100.211 195.933 102.291 197.16C104.425 198.333 106.051 199.96 107.171 202.04V181.8H124.931V241H107.171V234.84C106.051 236.92 104.425 238.573 102.291 239.8C100.211 240.973 97.7046 241.56 94.7713 241.56C91.2513 241.56 88.0779 240.653 85.2513 238.84C82.4246 236.973 80.1846 234.307 78.5313 230.84C76.9313 227.32 76.1313 223.187 76.1313 218.44ZM107.251 218.44C107.251 216.04 106.638 214.173 105.411 212.84C104.185 211.507 102.611 210.84 100.691 210.84C98.7713 210.84 97.1979 211.507 95.9713 212.84C94.7446 214.173 94.1313 216.04 94.1313 218.44C94.1313 220.84 94.7446 222.707 95.9713 224.04C97.1979 225.373 98.7713 226.04 100.691 226.04C102.611 226.04 104.185 225.373 105.411 224.04C106.638 222.707 107.251 220.84 107.251 218.44ZM130.506 218.44C130.506 213.693 131.306 209.587 132.906 206.12C134.56 202.6 136.8 199.933 139.626 198.12C142.453 196.253 145.626 195.32 149.146 195.32C152.08 195.32 154.613 195.933 156.746 197.16C158.88 198.333 160.506 199.96 161.626 202.04V195.88H179.306V241H161.626V234.84C160.506 236.92 158.88 238.573 156.746 239.8C154.613 240.973 152.08 241.56 149.146 241.56C145.626 241.56 142.453 240.653 139.626 238.84C136.8 236.973 134.56 234.307 132.906 230.84C131.306 227.32 130.506 223.187 130.506 218.44ZM161.626 218.44C161.626 216.04 161.013 214.173 159.786 212.84C158.56 211.507 156.986 210.84 155.066 210.84C153.146 210.84 151.573 211.507 150.346 212.84C149.12 214.173 148.506 216.04 148.506 218.44C148.506 220.84 149.12 222.707 150.346 224.04C151.573 225.373 153.146 226.04 155.066 226.04C156.986 226.04 158.56 225.373 159.786 224.04C161.013 222.707 161.626 220.84 161.626 218.44ZM184.881 218.44C184.881 213.693 185.681 209.587 187.281 206.12C188.935 202.6 191.175 199.933 194.001 198.12C196.828 196.253 200.001 195.32 203.521 195.32C206.455 195.32 208.961 195.933 211.041 197.16C213.175 198.333 214.801 199.96 215.921 202.04V181.8H233.681V241H215.921V234.84C214.801 236.92 213.175 238.573 211.041 239.8C208.961 240.973 206.455 241.56 203.521 241.56C200.001 241.56 196.828 240.653 194.001 238.84C191.175 236.973 188.935 234.307 187.281 230.84C185.681 227.32 184.881 223.187 184.881 218.44ZM216.001 218.44C216.001 216.04 215.388 214.173 214.161 212.84C212.935 211.507 211.361 210.84 209.441 210.84C207.521 210.84 205.948 211.507 204.721 212.84C203.495 214.173 202.881 216.04 202.881 218.44C202.881 220.84 203.495 222.707 204.721 224.04C205.948 225.373 207.521 226.04 209.441 226.04C211.361 226.04 212.935 225.373 214.161 224.04C215.388 222.707 216.001 220.84 216.001 218.44ZM285.336 218.04C285.336 219.267 285.256 220.44 285.096 221.56H256.536C256.803 225.453 258.43 227.4 261.416 227.4C263.336 227.4 264.723 226.52 265.576 224.76H284.376C283.736 227.96 282.376 230.84 280.296 233.4C278.27 235.907 275.683 237.907 272.536 239.4C269.443 240.84 266.03 241.56 262.296 241.56C257.816 241.56 253.816 240.627 250.296 238.76C246.83 236.893 244.11 234.227 242.136 230.76C240.216 227.24 239.256 223.133 239.256 218.44C239.256 213.747 240.216 209.667 242.136 206.2C244.11 202.68 246.83 199.987 250.296 198.12C253.816 196.253 257.816 195.32 262.296 195.32C266.776 195.32 270.75 196.253 274.216 198.12C277.736 199.933 280.456 202.547 282.376 205.96C284.35 209.373 285.336 213.4 285.336 218.04ZM267.336 213.8C267.336 212.307 266.856 211.187 265.896 210.44C264.936 209.64 263.736 209.24 262.296 209.24C259.15 209.24 257.31 210.76 256.776 213.8H267.336Z" fill="#1F1F1F"/>
</svg>
